<mxfile host="app.diagrams.net" modified="2023-11-28T21:07:38.557Z" agent="Mozilla/5.0 (Windows NT 10.0; Win64; x64) AppleWebKit/537.36 (KHTML, like Gecko) Chrome/119.0.0.0 Safari/537.36" etag="gnIQIEqusGJA5gfyQSYX" version="22.1.4" type="google">
  <diagram name="Page-1" id="ApMOQ4fsFgA22AfX-czs">
    <mxGraphModel grid="1" page="1" gridSize="10" guides="1" tooltips="1" connect="1" arrows="1" fold="1" pageScale="1" pageWidth="850" pageHeight="1100" math="0" shadow="0">
      <root>
        <mxCell id="0" />
        <mxCell id="1" parent="0" />
        <mxCell id="Y4Gq93iEB0q2e1SiCKAk-9" value="Titan&#39;s direct" style="swimlane;whiteSpace=wrap;html=1;" vertex="1" parent="1">
          <mxGeometry x="260" y="170" width="480" height="800" as="geometry" />
        </mxCell>
        <mxCell id="Y4Gq93iEB0q2e1SiCKAk-10" value="View Current Courses" style="ellipse;whiteSpace=wrap;html=1;" vertex="1" parent="Y4Gq93iEB0q2e1SiCKAk-9">
          <mxGeometry x="60" y="90" width="120" height="80" as="geometry" />
        </mxCell>
        <mxCell id="Y4Gq93iEB0q2e1SiCKAk-12" value="Plan Schedule" style="ellipse;whiteSpace=wrap;html=1;" vertex="1" parent="Y4Gq93iEB0q2e1SiCKAk-9">
          <mxGeometry x="60" y="200" width="120" height="80" as="geometry" />
        </mxCell>
        <mxCell id="Y4Gq93iEB0q2e1SiCKAk-13" value="Search courses" style="ellipse;whiteSpace=wrap;html=1;" vertex="1" parent="Y4Gq93iEB0q2e1SiCKAk-9">
          <mxGeometry x="360" y="160" width="120" height="80" as="geometry" />
        </mxCell>
        <mxCell id="Y4Gq93iEB0q2e1SiCKAk-14" value="Add courses" style="ellipse;whiteSpace=wrap;html=1;" vertex="1" parent="Y4Gq93iEB0q2e1SiCKAk-9">
          <mxGeometry x="340" y="270" width="120" height="80" as="geometry" />
        </mxCell>
        <mxCell id="Y4Gq93iEB0q2e1SiCKAk-15" value="" style="endArrow=classic;html=1;rounded=0;entryX=0;entryY=0.5;entryDx=0;entryDy=0;dashed=1;" edge="1" parent="Y4Gq93iEB0q2e1SiCKAk-9" source="Y4Gq93iEB0q2e1SiCKAk-12" target="Y4Gq93iEB0q2e1SiCKAk-13">
          <mxGeometry width="50" height="50" relative="1" as="geometry">
            <mxPoint x="140" y="260" as="sourcePoint" />
            <mxPoint x="190" y="210" as="targetPoint" />
          </mxGeometry>
        </mxCell>
        <mxCell id="Y4Gq93iEB0q2e1SiCKAk-18" value="&amp;lt;&amp;lt;Includes&amp;gt;&amp;gt;" style="edgeLabel;html=1;align=center;verticalAlign=middle;resizable=0;points=[];" connectable="0" vertex="1" parent="Y4Gq93iEB0q2e1SiCKAk-15">
          <mxGeometry x="-0.1458" y="2" relative="1" as="geometry">
            <mxPoint as="offset" />
          </mxGeometry>
        </mxCell>
        <mxCell id="Y4Gq93iEB0q2e1SiCKAk-16" value="" style="endArrow=classic;html=1;rounded=0;entryX=0;entryY=0.5;entryDx=0;entryDy=0;exitX=0.93;exitY=0.84;exitDx=0;exitDy=0;exitPerimeter=0;dashed=1;" edge="1" parent="Y4Gq93iEB0q2e1SiCKAk-9" source="Y4Gq93iEB0q2e1SiCKAk-12" target="Y4Gq93iEB0q2e1SiCKAk-14">
          <mxGeometry width="50" height="50" relative="1" as="geometry">
            <mxPoint x="140" y="260" as="sourcePoint" />
            <mxPoint x="190" y="210" as="targetPoint" />
          </mxGeometry>
        </mxCell>
        <mxCell id="Y4Gq93iEB0q2e1SiCKAk-19" value="&amp;lt;&amp;lt;Includes&amp;gt;&amp;gt;" style="edgeLabel;html=1;align=center;verticalAlign=middle;resizable=0;points=[];" connectable="0" vertex="1" parent="Y4Gq93iEB0q2e1SiCKAk-16">
          <mxGeometry x="-0.0038" y="-3" relative="1" as="geometry">
            <mxPoint as="offset" />
          </mxGeometry>
        </mxCell>
        <mxCell id="Y4Gq93iEB0q2e1SiCKAk-20" value="Check grades" style="ellipse;whiteSpace=wrap;html=1;" vertex="1" parent="Y4Gq93iEB0q2e1SiCKAk-9">
          <mxGeometry x="60" y="470" width="120" height="80" as="geometry" />
        </mxCell>
        <mxCell id="Y4Gq93iEB0q2e1SiCKAk-21" value="View GPA" style="ellipse;whiteSpace=wrap;html=1;" vertex="1" parent="Y4Gq93iEB0q2e1SiCKAk-9">
          <mxGeometry x="330" y="510" width="120" height="80" as="geometry" />
        </mxCell>
        <mxCell id="Y4Gq93iEB0q2e1SiCKAk-22" value="" style="endArrow=classic;html=1;rounded=0;exitX=1;exitY=0.5;exitDx=0;exitDy=0;entryX=0;entryY=0.5;entryDx=0;entryDy=0;dashed=1;" edge="1" parent="Y4Gq93iEB0q2e1SiCKAk-9" source="Y4Gq93iEB0q2e1SiCKAk-20" target="Y4Gq93iEB0q2e1SiCKAk-21">
          <mxGeometry width="50" height="50" relative="1" as="geometry">
            <mxPoint x="140" y="350" as="sourcePoint" />
            <mxPoint x="190" y="300" as="targetPoint" />
          </mxGeometry>
        </mxCell>
        <mxCell id="Y4Gq93iEB0q2e1SiCKAk-23" value="Includes" style="edgeLabel;html=1;align=center;verticalAlign=middle;resizable=0;points=[];" connectable="0" vertex="1" parent="Y4Gq93iEB0q2e1SiCKAk-22">
          <mxGeometry x="-0.1263" y="-3" relative="1" as="geometry">
            <mxPoint as="offset" />
          </mxGeometry>
        </mxCell>
        <mxCell id="Y4Gq93iEB0q2e1SiCKAk-24" value="View Course Info" style="ellipse;whiteSpace=wrap;html=1;" vertex="1" parent="Y4Gq93iEB0q2e1SiCKAk-9">
          <mxGeometry x="230" y="40" width="120" height="80" as="geometry" />
        </mxCell>
        <mxCell id="Y4Gq93iEB0q2e1SiCKAk-25" value="" style="endArrow=classic;html=1;rounded=0;entryX=0.5;entryY=0;entryDx=0;entryDy=0;dashed=1;" edge="1" parent="Y4Gq93iEB0q2e1SiCKAk-9" source="Y4Gq93iEB0q2e1SiCKAk-24" target="Y4Gq93iEB0q2e1SiCKAk-13">
          <mxGeometry width="50" height="50" relative="1" as="geometry">
            <mxPoint x="448.4" y="120" as="sourcePoint" />
            <mxPoint x="349.9999999999999" y="69.60000000000002" as="targetPoint" />
          </mxGeometry>
        </mxCell>
        <mxCell id="Y4Gq93iEB0q2e1SiCKAk-26" value="&amp;lt;&amp;lt;extends&amp;gt;&amp;gt;" style="edgeLabel;html=1;align=center;verticalAlign=middle;resizable=0;points=[];" connectable="0" vertex="1" parent="Y4Gq93iEB0q2e1SiCKAk-25">
          <mxGeometry x="0.1164" y="-1" relative="1" as="geometry">
            <mxPoint as="offset" />
          </mxGeometry>
        </mxCell>
        <mxCell id="Y4Gq93iEB0q2e1SiCKAk-27" value="Edit/Remove &lt;br&gt;Courses" style="ellipse;whiteSpace=wrap;html=1;" vertex="1" parent="Y4Gq93iEB0q2e1SiCKAk-9">
          <mxGeometry x="70" y="330" width="120" height="80" as="geometry" />
        </mxCell>
        <mxCell id="Y4Gq93iEB0q2e1SiCKAk-28" value="" style="endArrow=classic;html=1;rounded=0;entryX=0.057;entryY=0.765;entryDx=0;entryDy=0;entryPerimeter=0;exitX=1;exitY=0.5;exitDx=0;exitDy=0;dashed=1;" edge="1" parent="Y4Gq93iEB0q2e1SiCKAk-9" source="Y4Gq93iEB0q2e1SiCKAk-27" target="Y4Gq93iEB0q2e1SiCKAk-14">
          <mxGeometry width="50" height="50" relative="1" as="geometry">
            <mxPoint x="194.44" y="367.6000000000001" as="sourcePoint" />
            <mxPoint x="339.99999999999994" y="329.99999999999994" as="targetPoint" />
          </mxGeometry>
        </mxCell>
        <mxCell id="Y4Gq93iEB0q2e1SiCKAk-29" value="&amp;lt;&amp;lt;extends&amp;gt;&amp;gt;" style="edgeLabel;html=1;align=center;verticalAlign=middle;resizable=0;points=[];" connectable="0" vertex="1" parent="Y4Gq93iEB0q2e1SiCKAk-28">
          <mxGeometry x="-0.144" y="-5" relative="1" as="geometry">
            <mxPoint x="4" y="-1" as="offset" />
          </mxGeometry>
        </mxCell>
        <mxCell id="Y4Gq93iEB0q2e1SiCKAk-30" value="Enter waitlist" style="ellipse;whiteSpace=wrap;html=1;" vertex="1" parent="Y4Gq93iEB0q2e1SiCKAk-9">
          <mxGeometry x="240" y="400" width="120" height="80" as="geometry" />
        </mxCell>
        <mxCell id="Y4Gq93iEB0q2e1SiCKAk-31" value="" style="endArrow=classic;html=1;rounded=0;entryX=0.41;entryY=1.025;entryDx=0;entryDy=0;entryPerimeter=0;exitX=1.017;exitY=0.38;exitDx=0;exitDy=0;dashed=1;exitPerimeter=0;" edge="1" parent="Y4Gq93iEB0q2e1SiCKAk-9" source="Y4Gq93iEB0q2e1SiCKAk-30" target="Y4Gq93iEB0q2e1SiCKAk-14">
          <mxGeometry width="50" height="50" relative="1" as="geometry">
            <mxPoint x="260" y="439" as="sourcePoint" />
            <mxPoint x="417" y="400" as="targetPoint" />
          </mxGeometry>
        </mxCell>
        <mxCell id="Y4Gq93iEB0q2e1SiCKAk-32" value="&amp;lt;&amp;lt;extends&amp;gt;&amp;gt;" style="edgeLabel;html=1;align=center;verticalAlign=middle;resizable=0;points=[];" connectable="0" vertex="1" parent="Y4Gq93iEB0q2e1SiCKAk-31">
          <mxGeometry x="-0.144" y="-5" relative="1" as="geometry">
            <mxPoint x="4" y="-1" as="offset" />
          </mxGeometry>
        </mxCell>
        <mxCell id="Y4Gq93iEB0q2e1SiCKAk-33" value="View Curriculum&amp;nbsp;&lt;br&gt;progress" style="ellipse;whiteSpace=wrap;html=1;" vertex="1" parent="Y4Gq93iEB0q2e1SiCKAk-9">
          <mxGeometry x="60" y="610" width="120" height="80" as="geometry" />
        </mxCell>
        <mxCell id="Y4Gq93iEB0q2e1SiCKAk-11" value="User" style="shape=umlActor;verticalLabelPosition=bottom;verticalAlign=top;html=1;outlineConnect=0;" vertex="1" parent="1">
          <mxGeometry x="60" y="500" width="30" height="60" as="geometry" />
        </mxCell>
        <mxCell id="Y4Gq93iEB0q2e1SiCKAk-34" value="" style="endArrow=classic;html=1;rounded=0;exitX=0.5;exitY=0.5;exitDx=0;exitDy=0;exitPerimeter=0;entryX=0;entryY=0.5;entryDx=0;entryDy=0;" edge="1" parent="1" source="Y4Gq93iEB0q2e1SiCKAk-11" target="Y4Gq93iEB0q2e1SiCKAk-10">
          <mxGeometry width="50" height="50" relative="1" as="geometry">
            <mxPoint x="420" y="540" as="sourcePoint" />
            <mxPoint x="470" y="490" as="targetPoint" />
          </mxGeometry>
        </mxCell>
        <mxCell id="Y4Gq93iEB0q2e1SiCKAk-35" value="" style="endArrow=classic;html=1;rounded=0;exitX=0.5;exitY=0.5;exitDx=0;exitDy=0;exitPerimeter=0;entryX=0;entryY=0.5;entryDx=0;entryDy=0;" edge="1" parent="1" source="Y4Gq93iEB0q2e1SiCKAk-11" target="Y4Gq93iEB0q2e1SiCKAk-12">
          <mxGeometry width="50" height="50" relative="1" as="geometry">
            <mxPoint x="170" y="630" as="sourcePoint" />
            <mxPoint x="415" y="400" as="targetPoint" />
          </mxGeometry>
        </mxCell>
        <mxCell id="Y4Gq93iEB0q2e1SiCKAk-36" value="" style="endArrow=classic;html=1;rounded=0;exitX=0.5;exitY=0.5;exitDx=0;exitDy=0;exitPerimeter=0;entryX=0;entryY=0.5;entryDx=0;entryDy=0;" edge="1" parent="1" source="Y4Gq93iEB0q2e1SiCKAk-11" target="Y4Gq93iEB0q2e1SiCKAk-20">
          <mxGeometry width="50" height="50" relative="1" as="geometry">
            <mxPoint x="420" y="660" as="sourcePoint" />
            <mxPoint x="470" y="610" as="targetPoint" />
          </mxGeometry>
        </mxCell>
        <mxCell id="Y4Gq93iEB0q2e1SiCKAk-37" value="" style="endArrow=classic;html=1;rounded=0;exitX=0.5;exitY=0.5;exitDx=0;exitDy=0;exitPerimeter=0;entryX=0;entryY=0.5;entryDx=0;entryDy=0;" edge="1" parent="1" source="Y4Gq93iEB0q2e1SiCKAk-11" target="Y4Gq93iEB0q2e1SiCKAk-33">
          <mxGeometry width="50" height="50" relative="1" as="geometry">
            <mxPoint x="420" y="660" as="sourcePoint" />
            <mxPoint x="470" y="610" as="targetPoint" />
          </mxGeometry>
        </mxCell>
      </root>
    </mxGraphModel>
  </diagram>
</mxfile>
